<svg xmlns="http://www.w3.org/2000/svg" width="60" height="60" fill="none" viewBox="0 0 60 60"><path fill="#000" d="M51.645 49.4937C51.383 49.3537 51.108 49.1057 50.833 48.7977H56V44.7467C56 33.2677 48.743 24.6617 37 22.1127V16.7977H31.857V12.2047H35.232V8.13672H24.768V12.2047H28.143V16.7977H23V22.1127C11.257 24.6617 4 33.2687 4 44.7467V48.7977H9.168C8.893 49.1067 8.618 49.3547 8.355 49.4937C6.475 50.4977 3 51.5007 3 55.1997V60.0007H57V55.1997C57 51.5027 53.525 50.4987 51.645 49.4937ZM6 44.7467C6 34.0267 12.969 26.0437 24.187 23.9117L25 23.7577V18.7977H35V23.7577L35.813 23.9117C47.031 26.0437 54 34.0267 54 44.7467V46.7977H6V44.7467ZM51.602 57.9667H8.4C7.406 57.9667 6.601 57.0567 6.601 55.9337C6.601 54.8097 7.406 53.8997 8.4 53.8997H51.601C52.595 53.8997 53.4 54.8097 53.4 55.9337C53.4 57.0567 52.596 57.9667 51.602 57.9667Z"/><path fill="#000" d="M49.131 0L40.182 14.792L54.729 4.438L49.131 0ZM10.865 0L5.273 4.438L19.818 14.792L10.865 0ZM60 20.848L57.545 14.792L46 20.848H60ZM2.455 14.792L0 20.848H14L2.455 14.792Z"/></svg>