<svg xmlns="http://www.w3.org/2000/svg" width="43" height="43" fill="none" viewBox="0 0 43 43"><g id="simple-icons:codechef"><path id="Vector" fill="#000" d="M20.1687 0.00715886C19.5058 0.0250755 18.8518 0.0788255 18.1979 0.177367C17.2304 0.274117 16.2629 0.759659 15.1968 1.24341C13.8405 1.82391 12.4824 2.4062 11.2229 2.50295C9.09082 3.1802 8.41357 4.14949 7.83307 4.92349C7.83307 5.02024 7.73632 5.11699 7.73632 5.11699C6.96053 6.66678 6.86378 8.21658 7.15403 9.76637C7.44428 10.7357 7.83128 11.61 8.12153 12.4807C8.80236 14.3226 9.47961 16.0641 9.76986 18.0994C10.0619 18.6817 10.3504 19.4557 10.5439 20.2315C11.0276 21.7813 11.5149 23.5246 12.968 24.8809L12.9787 24.8755C13.0092 24.9095 13.0325 24.9472 13.0647 24.9776L13.1024 24.9597L13.0665 23.9134C14.2275 22.1683 15.8723 21.0055 18.1979 20.5217C19.1295 20.3247 20.1347 20.253 21.1774 20.2924C22.2629 20.3217 23.3425 20.4634 24.3988 20.7152C27.0147 21.3925 29.0482 22.7506 29.1467 23.9134C29.1951 24.5476 29.2184 25.1586 29.2041 25.7695C29.2041 25.8842 29.1969 25.9989 29.1915 26.1153L29.4352 26.2372C29.5819 26.1524 29.708 26.0361 29.8043 25.8967L29.8097 25.8914L29.8204 25.877C29.8921 25.7803 29.9548 25.6549 30.0175 25.5294C30.0533 25.4632 30.0856 25.3754 30.1178 25.2983C30.4851 24.4706 30.7664 23.2325 31.0817 21.7813C31.1785 21.2975 31.2788 20.9087 31.3738 20.5217C32.1496 18.7785 33.2138 17.2287 34.2799 15.7738C36.0231 13.3551 37.6697 11.1245 37.4762 8.50862C34.2799 2.30766 29.8222 1.33837 27.4966 0.854617C27.1096 0.757867 26.9179 0.757867 26.6277 0.661117C24.2304 0.223951 22.1592 -0.0483828 20.1687 0.00715886ZM29.2041 25.7695C29.2143 25.1819 29.1951 24.5941 29.1467 24.0083C29.05 22.7488 27.0147 21.3925 24.3021 20.7152C23.2758 20.4783 22.2298 20.3367 21.1774 20.2924C20.243 20.2611 19.3081 20.338 18.3914 20.5217C16.1625 21.0055 14.421 22.1701 13.355 23.9116L13.4464 26.4755C14.6414 25.8394 16.5513 24.9095 19.0722 24.6838C19.1887 24.6748 19.3159 24.6748 19.4377 24.6677C19.6473 24.6444 19.9143 24.5888 20.2332 24.5888C23.1124 24.5888 26.0884 25.5456 28.9712 27.5415C29.041 27.0506 29.0787 26.5579 29.0966 26.0669L29.1772 26.1082C29.1808 25.9953 29.2023 25.8806 29.2041 25.7677V25.7695ZM20.1669 0.103909C20.3891 0.0967422 20.622 0.121826 20.8459 0.123617C20.4339 0.120034 20.0236 0.128992 19.6151 0.152284C19.7996 0.141534 19.9824 0.109284 20.1669 0.103909ZM18.7049 0.232909C18.5687 0.249034 18.4308 0.256201 18.2946 0.275909C16.8308 0.485534 15.1162 1.53187 13.3675 2.1482C14.0036 1.9117 14.6468 1.61787 15.2936 1.34195C16.2611 0.858201 17.3271 0.372659 18.1979 0.275909C18.3663 0.250826 18.5365 0.252617 18.7049 0.232909ZM18.2946 0.662909C18.5849 0.662909 18.9737 0.662909 19.2639 0.759659C19.0464 0.709895 18.8216 0.701386 18.601 0.734576C18.7944 0.748888 18.985 0.789888 19.1672 0.856409C20.2063 2.64808 18.4039 10.3146 17.9506 15.4567C18.188 17.0876 18.4646 18.7125 18.7802 20.33C17.5206 17.1337 16.2611 11.5132 16.0658 7.15412C15.969 5.41083 16.0676 3.85924 16.4564 2.69824C16.8416 1.53187 17.4239 0.757867 18.2928 0.661117L18.2946 0.662909ZM23.9133 1.14666C22.462 4.92708 22.2685 12.0937 22.1718 14.3226C22.075 15.2901 22.1718 17.4222 22.2685 18.9719C22.2685 19.3589 22.3653 19.7459 22.3653 20.1347C22.3653 19.7459 22.2685 19.4557 22.2685 19.0687C21.4927 13.2565 20.5234 6.28337 23.9133 1.14845V1.14666ZM29.9189 1.8257C29.4352 5.69928 27.4017 7.54112 26.7244 11.3215C26.5309 14.3244 26.1421 17.8109 26.0454 20.8138C25.9486 17.8109 26.0454 14.6146 26.5291 11.4165C27.0129 8.12341 28.0789 4.82853 29.9189 1.8257ZM11.6995 2.95087C12.0992 2.94632 12.485 3.09804 12.7745 3.3737L12.7494 3.36116C12.9877 3.52599 13.226 3.73562 13.4535 4.04916C13.088 5.78349 13.9104 9.48149 13.5252 12.4162C13.6614 15.1897 13.6524 18.1137 15.0463 20.4053C13.2905 17.6999 12.9393 14.2455 12.6777 11.0241C12.4753 9.0712 12.3122 7.26699 11.8464 5.82291C11.5884 5.27645 11.3644 4.7927 11.1584 4.35016C11.1154 4.28387 11.0796 4.20862 11.033 4.14591C10.8574 3.96346 10.7543 3.72337 10.7427 3.47045C10.7427 3.3737 10.8377 3.1802 10.9362 3.1802C11.033 3.08345 11.2247 3.07987 11.3214 2.98312C11.4454 2.95931 11.5715 2.9485 11.6977 2.95087H11.6995ZM9.28611 4.04916C9.17861 4.08499 9.12128 4.12262 9.03528 4.15845C9.3524 4.09753 9.68386 4.21937 9.96694 4.7282C9.63011 6.32637 10.7481 10.7643 10.7338 13.8729C11.2946 17.1839 11.7192 20.7708 13.5503 23.0372C11.4182 20.6167 10.5474 16.3543 9.87019 12.7692C9.2879 9.95987 8.80236 7.53753 7.83486 6.76353C7.73811 6.57003 7.64136 6.47149 7.64136 6.27799C7.64136 5.98774 7.64136 5.59895 7.83486 5.21195C7.33857 6.34787 7.10924 7.48199 7.17194 8.61791C7.09861 7.44462 7.32683 6.27209 7.83486 5.21195C7.83486 5.1152 7.93161 5.1152 7.93161 5.01845C7.95311 4.98978 7.98715 4.95574 8.01044 4.92708C8.11391 4.74852 8.25149 4.59206 8.41536 4.46662C8.5139 4.35733 8.58736 4.25162 8.70024 4.14053C8.60528 4.24087 8.54257 4.33762 8.46015 4.43616C8.50853 4.40391 8.55332 4.36987 8.61065 4.34299C8.69524 4.24801 8.79945 4.17254 8.91607 4.12181C9.0327 4.07107 9.15896 4.04629 9.28611 4.04916ZM8.61065 4.34299C8.60349 4.35553 8.59632 4.36091 8.58915 4.37524L8.65544 4.32149L8.61065 4.34299ZM35.0557 6.37474L35.0467 6.40162C35.1148 6.39266 35.1811 6.37116 35.2491 6.37474C35.1829 6.37116 35.113 6.39266 35.0431 6.41058C33.4969 11.1442 31.6622 15.8777 29.8276 20.6113C29.8266 20.6132 29.8254 20.615 29.824 20.6167C29.6681 21.4498 29.4047 22.2005 28.8565 22.7488C29.6323 21.8762 29.7272 20.6149 29.824 19.0651C29.9207 17.6121 29.9207 16.0623 30.6965 14.5107C30.6965 14.4157 30.6983 14.3226 30.7915 14.2258L30.7933 14.2222C30.9671 13.5898 31.1552 12.9878 31.3612 12.3983C32.1102 10.0871 33.4037 6.72591 34.9679 6.41416C34.9965 6.40341 35.0288 6.38012 35.0574 6.37474H35.0557ZM15.0033 29.0429L14.4228 29.2364C14.7131 29.6252 14.9066 29.9172 15.1001 30.0122C15.3062 30.1335 15.54 30.2001 15.7791 30.2057C15.8759 30.2057 16.0676 30.2057 16.1643 30.109L17.6192 29.6252C17.7159 29.6252 17.8127 29.5285 17.9094 29.5285C18.1029 29.5285 18.1997 29.5285 18.3932 29.6252L18.8787 30.109L19.3624 30.0122C19.1689 29.722 18.8787 29.4335 18.6852 29.3367C18.4917 29.24 18.2964 29.1397 18.0062 29.1397H17.8127L16.2611 29.722H15.9726C15.7773 29.722 15.5856 29.722 15.4889 29.6252C15.3921 29.5285 15.1968 29.3349 15.0033 29.0429ZM10.3522 30.0122C9.8684 30.3025 9.18936 30.788 8.22007 31.175C7.25257 31.562 6.47678 31.9508 6.08799 32.3378C5.70278 32.7248 5.50928 33.1118 5.50928 33.5006C5.50928 33.6941 5.60603 33.7926 5.79953 33.8894C5.89628 33.9861 6.09157 33.9861 6.18832 34.0829C7.53963 34.6691 8.86436 35.3147 10.1587 36.0179C10.3539 36.1146 10.5474 36.3099 10.646 36.4067C10.7427 36.5034 10.8377 36.5034 10.9344 36.5034C11.1297 36.5034 11.4182 36.4085 11.6117 36.2132C11.8052 36.0197 11.9037 35.8244 11.9037 35.6309C11.9037 35.4374 11.8052 35.3424 11.6117 35.2457C11.6117 35.2457 10.8359 34.8569 9.47961 34.2764C8.75092 33.9607 8.04032 33.6048 7.35111 33.2103C7.64136 32.7266 8.22186 32.3378 9.0944 31.9508C10.0619 31.5638 10.7427 31.175 11.0312 30.8847C11.1279 30.788 11.1279 30.6912 11.1279 30.5945C11.1039 30.4484 11.0365 30.313 10.9344 30.2057C10.8018 30.085 10.63 30.0162 10.4507 30.0122H10.3522ZM30.503 30.0122C30.3575 30.0362 30.2225 30.1036 30.116 30.2057C30.0193 30.3992 29.9207 30.4977 29.9207 30.5945V30.6912C30.211 30.9815 30.6016 31.175 31.1821 31.3685C31.6658 31.4652 32.1496 31.6605 32.6351 31.7573C33.2156 31.9508 33.6026 32.241 33.7979 32.628V32.7266C33.7979 32.8233 33.6026 33.0168 33.2156 33.2103C33.0221 33.3071 32.6333 33.5991 32.1496 33.9861C31.6658 34.2764 31.3738 34.5648 31.0835 34.6616C30.6965 34.8569 30.4063 35.0504 30.3095 35.2457C30.2128 35.3424 30.2128 35.4374 30.2128 35.5341C30.2128 35.7276 30.3095 35.7276 30.4063 35.9211C30.503 36.1146 30.6965 36.1182 30.7933 36.1182C30.89 36.1182 30.9868 36.0179 31.0835 36.0179C31.5673 35.7276 32.2481 35.3406 33.0221 34.6616C33.8929 33.9843 34.5719 33.5006 34.9607 33.2103C35.3477 33.0168 35.5394 32.8215 35.5394 32.5295C35.5394 32.4345 35.5394 32.241 35.3459 32.1443C34.6687 31.3685 33.7012 30.8865 32.5384 30.4977C32.3449 30.401 32.0546 30.3025 31.4723 30.2057C31.1821 30.1089 30.89 30.0122 30.6965 30.0122H30.503ZM25.1746 31.4635C24.6909 31.4635 24.3021 31.5638 24.0118 31.854C23.6248 32.1443 23.5281 32.628 23.6248 33.2103C23.6248 33.6941 23.8183 34.0811 24.1086 34.4699C24.3988 34.8569 24.7876 35.0522 25.1746 35.0522C25.4649 35.0522 25.6584 34.9518 25.9504 34.8551C26.4342 34.5648 26.6294 34.0811 26.6294 33.2103C26.6294 32.5313 26.4342 32.0475 26.1439 31.7591C25.8599 31.5613 25.5206 31.4584 25.1746 31.4652V31.4635ZM17.1336 31.562C16.6499 31.562 16.2629 31.6605 15.9726 31.9508C15.5838 32.241 15.4889 32.7248 15.5856 33.3071C15.5856 33.7908 15.7773 34.1778 16.0694 34.5648C16.3614 34.9518 16.7466 35.1489 17.1336 35.1489C17.4257 35.1489 17.6192 35.0486 17.9094 34.9518C18.3932 34.6616 18.5867 34.1778 18.5867 33.3071C18.5867 32.5313 18.3932 32.0475 18.1029 31.8558C17.8194 31.6584 17.4808 31.5555 17.1354 31.562H17.1336ZM17.1336 32.7266C17.4257 32.7266 17.6192 32.9201 17.6192 33.2103C17.6192 33.5006 17.3271 33.6941 17.1354 33.6941C16.8434 33.6941 16.6517 33.5006 16.6517 33.2103C16.6517 32.9201 16.8434 32.7266 17.1354 32.7266H17.1336ZM24.9811 32.8233C25.2714 32.8233 25.4667 33.015 25.4667 33.3071C25.4667 33.5006 25.2714 33.7908 24.9829 33.7908C24.6909 33.7908 24.4992 33.5973 24.4992 33.3071C24.4992 33.015 24.6909 32.8233 24.9829 32.8233H24.9811ZM20.1382 36.6002L20.4285 37.1807C20.5265 37.3649 20.6577 37.5295 20.8155 37.6662C20.9122 37.763 21.1075 37.9565 21.2992 37.9565H21.4945C21.688 37.9565 21.783 37.9565 21.8797 37.8597C21.9765 37.763 22.1736 37.763 22.2703 37.6662L22.5588 37.3759C22.6555 37.2792 22.7523 37.1807 22.7523 37.0839C22.849 36.9872 22.849 36.8904 22.9458 36.7937C22.9458 36.6969 23.0425 36.6002 23.0425 36.6002C22.9458 36.7937 22.7523 36.9872 22.6555 37.1807C22.462 37.2774 22.3671 37.4727 22.1718 37.4727C21.9801 37.5695 21.7848 37.5695 21.5913 37.5695C21.3978 37.5695 21.2043 37.5695 21.1075 37.4727C20.914 37.4727 20.8155 37.3759 20.7187 37.2792L20.4285 36.9872C20.3317 36.8904 20.235 36.6969 20.1382 36.6002ZM18.5867 38.442C16.5513 38.442 15.2936 41.1546 12.3875 38.7322C11.6135 43.4802 17.3289 43.8672 19.7512 41.8318C21.3996 40.3806 20.9122 38.3452 18.5867 38.442ZM23.7216 38.442C21.3978 38.3452 20.9122 40.3806 22.5606 41.8336C24.9811 43.8672 30.6947 43.4784 29.9207 38.7322C27.0147 41.1546 25.8537 38.442 23.7216 38.442Z"/></g></svg>